<svg xmlns="http://www.w3.org/2000/svg" viewBox="-80 0 1060 900" width="1060" height="900" font-family="Segoe UI, Arial, sans-serif">
  <defs>
    <marker id="arrow" viewBox="0 0 10 10" refX="9" refY="5" markerWidth="7" markerHeight="7" orient="auto-start-reverse">
      <path d="M 0 0 L 10 5 L 0 10 z" fill="#334155"/>
    </marker>
    <marker id="arrowDash" viewBox="0 0 10 10" refX="9" refY="5" markerWidth="7" markerHeight="7" orient="auto-start-reverse">
      <path d="M 0 0 L 10 5 L 0 10 z" fill="#64748b"/>
    </marker>
  </defs>

  <rect x="-80" y="0" width="1060" height="900" fill="#ffffff"/>
  <text x="370" y="38" text-anchor="middle" font-size="22" font-weight="700" fill="#0f172a">AssignmentPRN System Architecture</text>

  <!-- ===== Presentation ===== -->
  <rect x="60" y="60" width="620" height="220" rx="10" fill="#eff6ff" stroke="#2563eb" stroke-width="2"/>
  <text x="370" y="88" text-anchor="middle" font-size="16" font-weight="700" fill="#1d4ed8">Presentation Layer (WebMVC)</text>
  <rect x="85"  y="105" width="175" height="80" rx="6" fill="#ffffff" stroke="#93b4e8" stroke-width="1.5"/>
  <rect x="282" y="105" width="175" height="80" rx="6" fill="#ffffff" stroke="#93b4e8" stroke-width="1.5"/>
  <rect x="479" y="105" width="175" height="80" rx="6" fill="#ffffff" stroke="#93b4e8" stroke-width="1.5"/>
  <text x="172" y="142" text-anchor="middle" font-size="15" font-weight="600" fill="#17325c">Controllers</text>
  <text x="172" y="160" text-anchor="middle" font-size="10.5" font-weight="600" fill="#475569">14 controller</text>
  <text x="172" y="175" text-anchor="middle" font-size="9.5" fill="#64748b">ASP.NET Core MVC</text>
  <text x="369" y="142" text-anchor="middle" font-size="15" font-weight="600" fill="#17325c">Razor Views</text>
  <text x="369" y="160" text-anchor="middle" font-size="10.5" font-weight="600" fill="#475569">29 view · 3 layout</text>
  <text x="369" y="175" text-anchor="middle" font-size="9.5" fill="#64748b">13 partial · .cshtml</text>
  <text x="566" y="142" text-anchor="middle" font-size="15" font-weight="600" fill="#17325c">ViewModels</text>
  <text x="566" y="160" text-anchor="middle" font-size="10.5" font-weight="600" fill="#475569">15 file</text>
  <text x="566" y="175" text-anchor="middle" font-size="9.5" fill="#64748b">Binding · Validation</text>
  <rect x="85" y="197" width="569" height="66" rx="6" fill="#f8fafc" stroke="#94a3b8" stroke-width="1.2" stroke-dasharray="5 4"/>
  <text x="369" y="215" text-anchor="middle" font-size="10.5" font-weight="600" fill="#475569">Hạ tầng · khởi động</text>
  <text x="369" y="233" text-anchor="middle" font-size="10" fill="#64748b">Program.cs (DI · middleware) · appsettings.json (ConnectionString · MaterialStorage)</text>
  <text x="369" y="251" text-anchor="middle" font-size="10.5" fill="#64748b">Constants · Filters · Properties · Styles · wwwroot</text>

  <!-- ===== Business ===== -->
  <rect x="60" y="341" width="620" height="200" rx="10" fill="#f0fdf4" stroke="#16a34a" stroke-width="2"/>
  <text x="370" y="369" text-anchor="middle" font-size="16" font-weight="700" fill="#15803d">Business Layer (Services)</text>
  <rect x="85"  y="386" width="175" height="80" rx="6" fill="#ffffff" stroke="#8fd3a7" stroke-width="1.5"/>
  <rect x="282" y="386" width="175" height="80" rx="6" fill="#ffffff" stroke="#8fd3a7" stroke-width="1.5"/>
  <rect x="479" y="386" width="175" height="80" rx="6" fill="#ffffff" stroke="#8fd3a7" stroke-width="1.5"/>
  <text x="172" y="423" text-anchor="middle" font-size="15" font-weight="600" fill="#14532d">Services</text>
  <text x="172" y="441" text-anchor="middle" font-size="10.5" font-weight="600" fill="#475569">8 service</text>
  <text x="172" y="456" text-anchor="middle" font-size="9.5" fill="#64748b">Auth · Course · Exam · Question</text>
  <text x="369" y="423" text-anchor="middle" font-size="15" font-weight="600" fill="#14532d">Business rules</text>
  <text x="369" y="441" text-anchor="middle" font-size="10.5" font-weight="600" fill="#475569">10 file</text>
  <text x="369" y="456" text-anchor="middle" font-size="9.5" fill="#64748b">Scheduling · Picking · Scoring</text>
  <text x="566" y="423" text-anchor="middle" font-size="15" font-weight="600" fill="#14532d">Interfaces</text>
  <text x="566" y="441" text-anchor="middle" font-size="10.5" font-weight="600" fill="#475569">5 file</text>
  <text x="566" y="456" text-anchor="middle" font-size="9.5" fill="#64748b">Request/Response DTO · Enums</text>
  <rect x="85" y="478" width="569" height="46" rx="6" fill="#f8fafc" stroke="#94a3b8" stroke-width="1.2" stroke-dasharray="5 4"/>
  <text x="369" y="496" text-anchor="middle" font-size="10.5" font-weight="600" fill="#475569">Nối tầng (file ở gốc project)</text>
  <text x="369" y="514" text-anchor="middle" font-size="10.5" fill="#64748b">ServiceCollectionExtensions (DI) · DataAccessMappings (chuyển DTO)</text>

  <!-- ===== Data Access ===== -->
  <rect x="60" y="602" width="620" height="250" rx="10" fill="#fff5ef" stroke="#d2693c" stroke-width="2"/>
  <text x="370" y="630" text-anchor="middle" font-size="16" font-weight="700" fill="#c2410c">Data Access Layer</text>
  <rect x="85"  y="647" width="175" height="80" rx="6" fill="#ffffff" stroke="#e8b095" stroke-width="1.5"/>
  <rect x="282" y="647" width="175" height="80" rx="6" fill="#ffffff" stroke="#e8b095" stroke-width="1.5"/>
  <rect x="479" y="647" width="175" height="80" rx="6" fill="#ffffff" stroke="#e8b095" stroke-width="1.5"/>
  <text x="172" y="684" text-anchor="middle" font-size="15" font-weight="600" fill="#7c3a1d">Repositories</text>
  <text x="172" y="702" text-anchor="middle" font-size="10.5" font-weight="600" fill="#475569">8 repository</text>
  <text x="172" y="717" text-anchor="middle" font-size="9.5" fill="#64748b">Query · Command</text>
  <text x="369" y="684" text-anchor="middle" font-size="15" font-weight="600" fill="#7c3a1d">AivesDbContext</text>
  <text x="369" y="702" text-anchor="middle" font-size="10.5" font-weight="600" fill="#475569">12 DbSet</text>
  <text x="369" y="717" text-anchor="middle" font-size="9.5" fill="#64748b">EF Core 9 · Pomelo MySQL</text>
  <text x="566" y="684" text-anchor="middle" font-size="15" font-weight="600" fill="#7c3a1d">Entity Models</text>
  <text x="566" y="702" text-anchor="middle" font-size="10.5" font-weight="600" fill="#475569">12 entity</text>
  <text x="566" y="717" text-anchor="middle" font-size="9.5" fill="#64748b">User · Course · ExamSession</text>

  <path d="M 95 757 a 105 17 0 0 1 210 0 l 0 58 a 105 17 0 0 1 -210 0 z" fill="#ffffff" stroke="#b45309" stroke-width="2"/>
  <ellipse cx="200" cy="757" rx="105" ry="17" fill="#ffffff" stroke="#b45309" stroke-width="2"/>
  <text x="200" y="790" text-anchor="middle" font-size="13.5" font-weight="600" fill="#7c3a1d">File tài liệu</text>
  <text x="200" y="807" text-anchor="middle" font-size="8.5" fill="#64748b">LocalMaterialFileStore · Storage/materials</text>

  <rect x="330" y="750" width="324" height="66" rx="6" fill="#f8fafc" stroke="#94a3b8" stroke-width="1.2" stroke-dasharray="5 4"/>
  <text x="492" y="770" text-anchor="middle" font-size="10.5" font-weight="600" fill="#475569">Hạ tầng</text>
  <text x="492" y="788" text-anchor="middle" font-size="10.5" fill="#64748b">Contracts · Enums · Extensions</text>
  <text x="492" y="806" text-anchor="middle" font-size="10.5" fill="#64748b">Services · Common</text>

  <!-- request / response giua cac tang -->
  <line x1="320" y1="282" x2="320" y2="337" stroke="#334155" stroke-width="2.5" marker-end="url(#arrow)"/>
  <line x1="430" y1="339" x2="430" y2="284" stroke="#64748b" stroke-width="2" stroke-dasharray="6 5" marker-end="url(#arrowDash)"/>
  <line x1="320" y1="543" x2="320" y2="598" stroke="#334155" stroke-width="2.5" marker-end="url(#arrow)"/>
  <line x1="430" y1="600" x2="430" y2="545" stroke="#64748b" stroke-width="2" stroke-dasharray="6 5" marker-end="url(#arrowDash)"/>

  <!-- Luu tru ngoai: chi con MySQL -->
  <path d="M 753 640 a 62 17 0 0 1 124 0 l 0 60 a 62 17 0 0 1 -124 0 z" fill="#ffffff" stroke="#334155" stroke-width="2"/>
  <ellipse cx="815" cy="640" rx="62" ry="17" fill="#ffffff" stroke="#334155" stroke-width="2"/>
  <text x="815" y="677" text-anchor="middle" font-size="14" font-weight="600" fill="#0f172a">MySQL 8.4</text>
  <text x="815" y="694" text-anchor="middle" font-size="10.5" fill="#64748b">Aiven · TLS</text>
  <line x1="684" y1="658" x2="749" y2="658" stroke="#334155" stroke-width="2.5" marker-end="url(#arrow)"/>
  <line x1="749" y1="688" x2="684" y2="688" stroke="#64748b" stroke-width="2" stroke-dasharray="6 5" marker-end="url(#arrowDash)"/>

  <!-- Legend -->
  <rect x="730" y="80" width="215" height="145" rx="8" fill="#f8fafc" stroke="#94a3b8" stroke-width="1.5"/>
  <text x="837" y="108" text-anchor="middle" font-size="15" font-weight="700" fill="#0f172a">Legends</text>
  <line x1="750" y1="135" x2="810" y2="135" stroke="#334155" stroke-width="2.5" marker-end="url(#arrow)"/>
  <text x="822" y="140" font-size="14" fill="#334155">request</text>
  <line x1="750" y1="167" x2="810" y2="167" stroke="#64748b" stroke-width="2" stroke-dasharray="6 5" marker-end="url(#arrowDash)"/>
  <text x="822" y="172" font-size="14" fill="#334155">response</text>
  <rect x="750" y="190" width="60" height="22" rx="4" fill="#f8fafc" stroke="#94a3b8" stroke-width="1.2" stroke-dasharray="5 4"/>
  <text x="822" y="206" font-size="14" fill="#334155">hạ tầng</text>

  <!-- Ghi chu ben trai -->
  <text x="-72" y="128" font-size="14" font-weight="600" fill="#475569">MVC</text>
  <text x="-72" y="148" font-size="14" font-weight="600" fill="#475569">Web App</text>
  <line x1="-8" y1="138" x2="54" y2="138" stroke="#94a3b8" stroke-width="1.5" marker-end="url(#arrowDash)"/>
  <path d="M 52 341 C 42 341 42 351 42 361 L 42 581 C 42 593 34 595 26 595 C 34 595 42 597 42 609 L 42 830 C 42 840 42 848 52 848" fill="none" stroke="#94a3b8" stroke-width="1.5"/>
  <text x="-40" y="599" text-anchor="middle" font-size="14" font-weight="600" fill="#475569">.dll</text>
</svg>
